<svg width="19" height="19" viewBox="0 0 19 19" fill="none" xmlns="http://www.w3.org/2000/svg">
<g clip-path="url(#clip0_6209_466)">
<path d="M15.3583 9.36172C15.2924 7.76519 14.7052 6.41276 13.5969 5.30443C12.4885 4.19609 11.1361 3.60894 9.53958 3.54297V2.35547C10.4896 2.38186 11.3835 2.58307 12.2214 2.95911C13.0592 3.33516 13.7948 3.83984 14.4281 4.47318C15.0615 5.10651 15.5661 5.8421 15.9422 6.67995C16.3182 7.5178 16.5194 8.41172 16.5458 9.36172H15.3583ZM12.0135 9.36172C11.9476 8.702 11.6837 8.14453 11.2219 7.68932C10.7601 7.23411 10.1993 6.97352 9.53958 6.90755V5.72005C10.5292 5.78602 11.3703 6.16207 12.063 6.84818C12.7557 7.53429 13.1351 8.37214 13.201 9.36172H12.0135ZM15.7344 16.6253C14.1247 16.6253 12.5248 16.2294 10.9349 15.4378C9.34496 14.6461 7.91667 13.6169 6.65 12.3503C5.38333 11.0836 4.35417 9.65529 3.5625 8.06536C2.77083 6.47543 2.375 4.87561 2.375 3.26589C2.375 3.01142 2.45982 2.79936 2.62946 2.62972C2.7991 2.46008 3.01116 2.37526 3.26562 2.37526H6.03646C6.21605 2.37526 6.3764 2.43793 6.51751 2.56328C6.65862 2.68863 6.74896 2.85686 6.78854 3.06797L7.32292 5.56172C7.34931 5.74644 7.34601 5.91467 7.31302 6.06641C7.28003 6.21814 7.21076 6.34679 7.10521 6.45234L5.12604 8.4513C5.86493 9.67839 6.69288 10.7471 7.6099 11.6576C8.52691 12.568 9.56597 13.3398 10.7271 13.9732L12.6073 12.0336C12.7392 11.8885 12.891 11.7862 13.0625 11.7268C13.234 11.6674 13.4056 11.6576 13.5771 11.6971L15.9323 12.2117C16.1343 12.2562 16.3003 12.3564 16.4302 12.5123C16.5601 12.6682 16.625 12.8516 16.625 13.0628V15.7346C16.625 15.9891 16.5402 16.2012 16.3705 16.3708C16.2009 16.5404 15.9888 16.6253 15.7344 16.6253ZM4.53229 7.36276L6.13542 5.73984L5.68021 3.56276H3.5625C3.5625 4.07734 3.64167 4.64141 3.8 5.25495C3.95833 5.86849 4.20243 6.57109 4.53229 7.36276ZM11.8354 14.5471C12.3764 14.7978 12.9635 15.0023 13.5969 15.1607C14.2302 15.319 14.8437 15.4114 15.4375 15.4378V13.3201L13.399 12.9044L11.8354 14.5471Z" fill="white"/>
</g>
<defs>
<clipPath id="clip0_6209_466">
<rect width="19" height="19" fill="white"/>
</clipPath>
</defs>
</svg>
