<svg width="19" height="19" viewBox="0 0 19 19" fill="none" xmlns="http://www.w3.org/2000/svg">
<path d="M15.875 8.08301C15.875 13.0413 9.5 17.2913 9.5 17.2913C9.5 17.2913 3.125 13.0413 3.125 8.08301C3.125 6.39225 3.79665 4.77075 4.99219 3.5752C6.18774 2.37966 7.80924 1.70801 9.5 1.70801C11.1908 1.70801 12.8123 2.37966 14.0078 3.5752C15.2033 4.77075 15.875 6.39225 15.875 8.08301Z" fill="white"/>
<path d="M9.5 10.208C10.6736 10.208 11.625 9.25661 11.625 8.08301C11.625 6.9094 10.6736 5.95801 9.5 5.95801C8.32639 5.95801 7.375 6.9094 7.375 8.08301C7.375 9.25661 8.32639 10.208 9.5 10.208Z" fill="#333237"/>
</svg>
